<svg width="213" height="34" viewBox="0 0 213 34" fill="none" xmlns="http://www.w3.org/2000/svg">
<path d="M51.5517 26.0001V6.15027H58.8662L66.3439 22.3836H67.2684L66.7245 22.873V6.15027H70.912V26.0001H63.5431L56.0655 9.76674H55.141L55.6848 9.27729V26.0001H51.5517Z" fill="white"/>
<path d="M75.5974 26.0001V6.15027H80.0568V26.0001H75.5974ZM79.513 18.0058V14.3077H87.181V18.0058H79.513ZM79.513 9.84831V6.15027H87.5073V9.84831H79.513Z" fill="white"/>
<path d="M95.2213 26.0001V9.49482H99.6807V26.0001H95.2213ZM89.647 10.0387V6.15027H105.282V10.0387H89.647Z" fill="white"/>
<path d="M114.25 26.0001V6.15027H120.395L124.936 17.2988H125.453L129.939 6.15027H136.193V26.0001H131.788V9.05976L132.414 9.11414L127.166 21.9757H122.924L117.649 9.11414L118.328 9.05976V26.0001H114.25Z" fill="white"/>
<path d="M149.627 26.0001V21.595H148.893V16.8093C148.893 16.048 148.711 15.4769 148.349 15.0963C147.986 14.7156 147.406 14.5252 146.609 14.5252C146.21 14.5252 145.684 14.5343 145.031 14.5524C144.379 14.5706 143.708 14.5978 143.019 14.634C142.33 14.6703 141.705 14.7065 141.143 14.7428V11.0719C141.56 11.0357 142.049 10.9994 142.611 10.9632C143.173 10.9269 143.753 10.8997 144.352 10.8816C144.95 10.8635 145.512 10.8544 146.038 10.8544C147.56 10.8544 148.838 11.0719 149.872 11.507C150.923 11.9421 151.721 12.6037 152.264 13.492C152.808 14.3621 153.08 15.486 153.08 16.8637V26.0001H149.627ZM144.868 26.3807C143.799 26.3807 142.856 26.1904 142.04 25.8097C141.243 25.429 140.617 24.8852 140.164 24.1782C139.711 23.4531 139.484 22.5921 139.484 21.595C139.484 20.5074 139.765 19.6191 140.327 18.9303C140.889 18.2233 141.678 17.7067 142.693 17.3804C143.708 17.0359 144.877 16.8637 146.201 16.8637H149.382V19.2838H146.173C145.412 19.2838 144.823 19.4741 144.406 19.8548C144.007 20.2173 143.808 20.7158 143.808 21.3503C143.808 21.9485 144.007 22.438 144.406 22.8187C144.823 23.1812 145.412 23.3625 146.173 23.3625C146.663 23.3625 147.098 23.2809 147.479 23.1178C147.877 22.9365 148.204 22.6374 148.458 22.2204C148.711 21.8035 148.856 21.2234 148.893 20.4802L149.926 21.5678C149.835 22.6011 149.581 23.4712 149.165 24.1782C148.766 24.8852 148.204 25.429 147.479 25.8097C146.772 26.1904 145.902 26.3807 144.868 26.3807Z" fill="white"/>
<path d="M156.998 26.0001V11.0991H160.451V17.4891H160.37C160.37 15.3863 160.814 13.7639 161.702 12.6218C162.608 11.4798 163.914 10.9088 165.618 10.9088H166.189V14.6612H165.101C163.905 14.6612 162.98 14.9875 162.327 15.6401C161.675 16.2746 161.349 17.1991 161.349 18.4136V26.0001H156.998Z" fill="white"/>
<path d="M179.165 26.0001L174.461 19.039H172.367L178.431 11.0991H182.999L177.289 18.4952L177.343 16.3743L184.06 26.0001H179.165ZM168.669 26.0001V6.15027H173.02V26.0001H168.669Z" fill="white"/>
<path d="M192.503 26.5167C191.234 26.5167 190.11 26.2992 189.132 25.8641C188.171 25.429 187.364 24.8489 186.712 24.1238C186.077 23.3806 185.588 22.5558 185.243 21.6494C184.917 20.7249 184.754 19.7823 184.754 18.8215V18.2777C184.754 17.2807 184.917 16.3289 185.243 15.4226C185.588 14.4981 186.077 13.6732 186.712 12.9481C187.346 12.223 188.135 11.652 189.077 11.2351C190.038 10.8 191.126 10.5825 192.34 10.5825C193.935 10.5825 195.277 10.945 196.365 11.6701C197.47 12.3771 198.313 13.3107 198.893 14.4709C199.473 15.6129 199.763 16.8637 199.763 18.2233V19.6916H186.576V17.2172H197.126L195.712 18.3592C195.712 17.471 195.585 16.7096 195.331 16.0752C195.077 15.4407 194.697 14.9603 194.189 14.634C193.7 14.2896 193.083 14.1174 192.34 14.1174C191.579 14.1174 190.935 14.2896 190.41 14.634C189.884 14.9784 189.485 15.486 189.213 16.1567C188.941 16.8093 188.805 17.616 188.805 18.5768C188.805 19.465 188.932 20.2445 189.186 20.9152C189.44 21.5678 189.839 22.0754 190.382 22.438C190.926 22.8005 191.633 22.9818 192.503 22.9818C193.301 22.9818 193.954 22.8277 194.461 22.5195C194.969 22.2114 195.313 21.8307 195.494 21.3775H199.492C199.274 22.3745 198.848 23.2628 198.214 24.0423C197.579 24.8218 196.781 25.429 195.821 25.8641C194.86 26.2992 193.754 26.5167 192.503 26.5167Z" fill="white"/>
<path d="M209.644 26.1904C208.139 26.1904 206.924 26.0091 206 25.6466C205.075 25.2659 204.396 24.6405 203.961 23.7704C203.544 22.8821 203.335 21.6857 203.335 20.1811V7.07478H207.387V20.3442C207.387 21.0512 207.568 21.595 207.931 21.9757C208.311 22.3383 208.846 22.5195 209.535 22.5195H211.737V26.1904H209.644ZM201.078 14.2805V11.0991H211.737V14.2805H201.078Z" fill="white"/>
<path d="M0 30.6001C5.63333 30.6001 10.2 26.0334 10.2 20.4001C10.2 14.7668 5.63333 10.2001 0 10.2001V17.34C1.68998 17.34 3.05998 18.7101 3.05998 20.4001C3.05998 22.0901 1.68998 23.4601 0 23.4601V30.6001Z" fill="#76DECC"/>
<path d="M33.9997 13.6001C32.2567 13.0479 30.4005 12.75 28.4747 12.75C18.3816 12.75 10.1997 20.9321 10.1997 31.025C10.1997 32.0381 10.2821 33.0319 10.4406 34H21.7955C21.3901 33.0913 21.1648 32.0845 21.1648 31.025C21.1648 26.9878 24.4375 23.715 28.4747 23.715C30.6812 23.715 32.6593 24.6927 33.9997 26.2384V13.6001Z" fill="#EA6CBC"/>
<path d="M1.79346 0C2.63911 7.64992 9.12477 13.6001 17.0001 13.6001C24.8753 13.6001 31.361 7.64992 32.2067 0H21.2649C20.5894 1.69339 18.9344 2.88999 17.0001 2.88999C15.0657 2.88999 13.4108 1.69339 12.7352 0H1.79346Z" fill="#2A27C9"/>
</svg>
